<svg width="44" height="45" viewBox="0 0 44 45" fill="none" xmlns="http://www.w3.org/2000/svg">
<rect y="0.577148" width="43.8462" height="43.8462" rx="21.9231" fill="#976FCC"/>
<path d="M21.9233 12.8545C16.598 12.8545 12.2771 17.1753 12.2771 22.5007C12.2771 24.633 12.9673 26.5971 14.1345 28.1963L12.9056 31.8326L16.7383 30.6373C18.2365 31.5913 20.0154 32.1468 21.9233 32.1468C27.2486 32.1468 31.5695 27.826 31.5695 22.5007C31.5695 17.1753 27.2486 12.8545 21.9233 12.8545ZM26.3396 27.6745C24.5888 28.3759 22.5013 27.6969 20.2174 25.963C17.9335 24.229 16.4296 21.788 16.3286 19.9755C16.2276 18.163 17.7035 17.2483 18.5059 17.2539C19.3083 17.2595 20.1893 19.824 20.2006 20.2168C20.2118 20.6152 19.2186 21.3222 19.1793 21.6589C19.14 21.9956 20.5316 23.6566 21.1209 24.1056C21.7045 24.5489 22.9109 25.4018 23.5338 25.3232C24.1511 25.2391 24.5607 23.9989 24.9535 23.9204C25.3463 23.8418 27.4899 24.908 27.7031 25.183C27.9164 25.4635 27.8939 27.0572 26.3396 27.6745Z" fill="white"/>
</svg>
