<svg width="44" height="45" viewBox="0 0 44 45" fill="none" xmlns="http://www.w3.org/2000/svg">
<rect y="0.577148" width="43.8462" height="43.8462" rx="21.9231" fill="#12C868"/>
<path d="M24.1356 13.8643H19.7056C15.4171 13.8643 11.9581 16.9773 11.9581 20.8414V23.8316C11.9581 26.5305 13.6775 28.9836 16.3881 30.1306V33.4712C16.3881 33.6396 16.56 33.7944 16.7775 33.7944C16.8635 33.7944 16.9646 33.7625 17.0354 33.7033L20.2366 30.8042H24.1356C28.4291 30.8042 31.8882 27.6911 31.8882 23.827V20.8368C31.8882 16.9773 28.4291 13.8643 24.1356 13.8643ZM27.0485 26.9401L25.941 27.9369C24.7475 28.9791 21.6829 27.7821 18.9723 25.3017C16.2617 22.8212 15.0581 20.0131 16.201 18.9708L17.3085 17.9741C17.7535 17.6054 18.4514 17.6236 18.8914 18.0059L20.4945 19.5079C20.9041 19.9084 20.9041 20.5046 20.4591 20.9051C20.3377 21.0143 20.2012 21.0735 20.0495 21.1372C19.4881 21.292 19.1999 21.779 19.3364 22.2887C19.6095 23.3947 21.157 24.7737 22.3353 25.0468C22.8814 25.1697 23.4428 24.892 23.6299 24.4187C23.817 23.9272 24.4289 23.6541 25.0105 23.8225C25.1824 23.868 25.319 23.9772 25.4555 24.0683L27.0586 25.5702C27.4581 25.9297 27.4581 26.5442 27.0485 26.9401ZM22.9118 18.6022C22.7904 18.6022 22.6893 18.6022 22.5881 18.634C22.401 18.6659 22.1987 18.5248 22.1785 18.3291C22.1583 18.1334 22.2999 17.9786 22.5022 17.9604C22.6387 17.9286 22.7752 17.9286 22.9118 17.9286C24.9549 17.9286 26.5934 19.4305 26.6237 21.2419C26.6237 21.3648 26.6237 21.4877 26.5883 21.6106C26.5529 21.779 26.4012 21.9337 26.1787 21.9018C25.9562 21.87 25.8196 21.7334 25.855 21.5332C25.855 21.424 25.8904 21.3329 25.8904 21.2419C25.8753 19.7991 24.5452 18.6022 22.9118 18.6022ZM25.1268 21.2692C25.0914 21.4376 24.9397 21.5924 24.7172 21.5605C24.5452 21.5286 24.3935 21.4057 24.3935 21.2692C24.3935 20.5501 23.731 19.9493 22.927 19.9493C22.7398 19.9812 22.5376 19.8265 22.5173 19.6444C22.4819 19.476 22.6539 19.2939 22.841 19.2757H22.8916C24.171 19.2757 25.1268 20.1632 25.1268 21.2692ZM27.9537 22.3251C27.9183 22.4935 27.7312 22.6164 27.5441 22.6027C27.357 22.5891 27.2205 22.4025 27.2356 22.2341C27.2356 22.2022 27.2356 22.2022 27.2356 22.1886C27.3216 21.8973 27.357 21.5924 27.357 21.2692C27.357 19.0755 25.3645 17.2823 22.927 17.2823C22.8056 17.2823 22.7044 17.2823 22.6033 17.2823C22.4162 17.3141 22.2139 17.1594 22.2139 16.9773C22.1785 16.8089 22.3504 16.6269 22.5376 16.6269C22.6741 16.6269 22.8106 16.595 22.927 16.595C25.7741 16.595 28.1054 18.6795 28.1054 21.2556C28.0903 21.606 28.0397 21.9883 27.9537 22.3251Z" fill="white"/>
</svg>
